<?xml version="1.0" encoding="UTF-8"?>
<svg width="48px" height="48px" viewBox="0 0 48 48" version="1.1" xmlns="http://www.w3.org/2000/svg" xmlns:xlink="http://www.w3.org/1999/xlink">
    <!-- Generator: Sketch 50.2 (55047) - http://www.bohemiancoding.com/sketch -->
    <title>icon-cal</title>
    <desc>Created with Sketch.</desc>
    <defs></defs>
    <g id="Symbols" stroke="none" stroke-width="1" fill="none" fill-rule="evenodd">
        <g id="icon-cal">
            <path d="M0,0 L48,0 L48,48 L0,48 L0,0 Z" id="Rectangle-Copy-3" fill="#FFFFFF"></path>
            <path d="M34.5,12 C35.3320312,12 36,12.6679688 36,13.5 L36,34.5 C36,35.3320312 35.3320312,36 34.5,36 L13.5,36 C12.6679688,36 12,35.3320312 12,34.5 L12,13.5 C12,12.6679688 12.6679688,12 13.5,12 L15.5039062,12 L15.5039062,15 C15.5039062,15.8320312 16.171875,16.5 17.0039062,16.5 C17.8359375,16.5 18.5039062,15.8320312 18.5039062,15 L18.5039062,12 L29.4960938,12 L29.4960938,15 C29.4960938,15.8320312 30.1640625,16.5 30.9960938,16.5 C31.828125,16.5 32.4960938,15.8320312 32.4960938,15 L32.4960938,12 L34.5,12 Z M19.5,32.4960938 L19.5,28.5 L15.5039062,28.5 L15.5039062,32.4960938 L19.5,32.4960938 Z M19.5,25.5 L19.5,21.5039062 L15.5039062,21.5039062 L15.5039062,25.5 L19.5,25.5 Z M26.0039062,32.4960938 L26.0039062,28.5 L21.9960938,28.5 L21.9960938,32.4960938 L26.0039062,32.4960938 Z M26.0039062,25.5 L26.0039062,21.5039062 L21.9960938,21.5039062 L21.9960938,25.5 L26.0039062,25.5 Z M32.4960938,32.4960938 L32.4960938,28.5 L28.5,28.5 L28.5,32.4960938 L32.4960938,32.4960938 Z M32.4960938,25.5 L32.4960938,21.5039062 L28.5,21.5039062 L28.5,25.5 L32.4960938,25.5 Z" id="view" fill="#49B48B"></path>
        </g>
    </g>
</svg>