<?xml version="1.0" encoding="UTF-8"?>
<svg width="48px" height="48px" viewBox="0 0 48 48" version="1.1" xmlns="http://www.w3.org/2000/svg" xmlns:xlink="http://www.w3.org/1999/xlink">
    <!-- Generator: Sketch 50.2 (55047) - http://www.bohemiancoding.com/sketch -->
    <title>close</title>
    <desc>Created with Sketch.</desc>
    <defs></defs>
    <g id="Page-1" stroke="none" stroke-width="1" fill="none" fill-rule="evenodd">
        <g id="nav" transform="translate(-142.000000, -2375.000000)">
            <g id="close" transform="translate(142.000000, 2375.000000)">
                <path d="M0,0 L48,0 L48,48 L0,48 L0,0 Z" id="Rectangle-Copy-3" fill="#FFFFFF"></path>
                <path d="M24,12 C30.6210938,12 36,17.3789062 36,24 C36,30.6210938 30.6210938,36 24,36 C17.3554688,36 12,30.6210938 12,24 C12,17.3789062 17.3554688,12 24,12 Z M29.3320312,27.0234375 L26.3085938,24 L29.3320312,21 L27,18.6679688 L24,21.6914062 L20.9765625,18.6679688 L18.6679688,21 L21.6679688,24 L18.6679688,27.0234375 L20.9765625,29.3320312 L24,26.3320312 L27,29.3320312 L29.3320312,27.0234375 Z" fill="#49B48B"></path>
            </g>
        </g>
    </g>
</svg>