<?xml version="1.0" encoding="UTF-8"?>
<svg width="154px" height="32px" viewBox="0 0 154 32" version="1.1" xmlns="http://www.w3.org/2000/svg" xmlns:xlink="http://www.w3.org/1999/xlink">
    <!-- Generator: Sketch 50.2 (55047) - http://www.bohemiancoding.com/sketch -->
    <title>logo--white</title>
    <desc>Created with Sketch.</desc>
    <defs></defs>
    <g id="Symbols" stroke="none" stroke-width="1" fill="none" fill-rule="evenodd">
        <g id="logo--white">
            <g id="Group">
                <path d="M9.18936986,23.3045333 C11.1302015,23.3045333 12.7165966,22.5280078 13.9486027,20.9749333 L16.4801096,23.6117333 C14.4717708,25.8986781 12.1048355,27.0421333 9.37923288,27.0421333 C6.65363021,27.0421333 4.40904991,26.171742 2.64542466,24.4309333 C0.881799401,22.6901246 0,20.4928133 0,17.8389333 C0,15.1850534 0.898675945,12.9706755 2.69605479,11.1957333 C4.49343364,9.42079113 6.69160344,8.53333333 9.29063014,8.53333333 C12.1934392,8.53333333 14.6236614,9.65118882 16.5813699,11.8869333 L14.1258082,14.7029333 C12.8769253,13.1327921 11.3242833,12.3477333 9.46783562,12.3477333 C7.98267751,12.3477333 6.7127176,12.8383951 5.65791781,13.8197333 C4.60311801,14.8010716 4.07572603,16.123725 4.07572603,17.7877333 C4.07572603,19.4517417 4.57358406,20.787195 5.56931507,21.7941333 C6.56504607,22.8010717 7.77171894,23.3045333 9.18936986,23.3045333 Z M30.7831233,26.8373333 L27.2136986,26.8373333 L27.2136986,25.1733333 C26.2348444,26.4192062 25.0239524,27.0421333 23.5809863,27.0421333 C22.1380202,27.0421333 20.9271282,26.6197376 19.948274,25.7749333 C18.9694198,24.9301291 18.48,23.8037404 18.48,22.3957333 C18.48,20.9877263 18.9862963,19.9338702 19.9989041,19.2341333 C21.0115119,18.5343965 22.3953885,18.1845333 24.1505753,18.1845333 L26.985863,18.1845333 L26.985863,18.1077333 C26.985863,16.6399927 26.2179803,15.9061333 24.6821918,15.9061333 C24.0239967,15.9061333 23.3278393,16.0383987 22.5936986,16.3029333 C21.859558,16.567468 21.239345,16.895998 20.7330411,17.2885333 L19.0369315,14.8053333 C20.825872,13.4911934 22.8679337,12.8341333 25.1631781,12.8341333 C26.8171042,12.8341333 28.1672276,13.2522625 29.213589,14.0885333 C30.2599504,14.9248042 30.7831233,16.2474576 30.7831233,18.0565333 L30.7831233,26.8373333 Z M26.9605479,21.5893333 L26.9605479,20.9237333 L24.5809315,20.9237333 C23.0620198,20.9237333 22.3025753,21.4015952 22.3025753,22.3573333 C22.3025753,22.8522691 22.4839982,23.2319987 22.8468493,23.4965333 C23.2097004,23.761068 23.7286542,23.8933333 24.403726,23.8933333 C25.0787979,23.8933333 25.6736961,23.6842688 26.1884384,23.2661333 C26.7031807,22.8479979 26.9605479,22.2890702 26.9605479,21.5893333 Z M41.4154521,16.4437333 C40.2847067,16.4437333 39.4408795,16.8490626 38.8839452,17.6597333 C38.3270109,18.4704041 38.0485479,19.5413267 38.0485479,20.8725333 L38.0485479,26.8373333 L34.2512877,26.8373333 L34.2512877,13.0645333 L38.0485479,13.0645333 L38.0485479,14.8821333 C38.537975,14.3189305 39.1497498,13.8410686 39.8838904,13.4485333 C40.6180311,13.055998 41.3648181,12.8512001 42.124274,12.8341333 L42.149589,16.4437333 L41.4154521,16.4437333 Z M56.4526027,24.8405333 C54.9168142,26.308274 53.1152432,27.0421333 51.0478356,27.0421333 C48.980428,27.0421333 47.271678,26.3978731 45.9215342,25.1093333 C44.5713905,23.8207936 43.8963288,22.0928108 43.8963288,19.9253333 C43.8963288,17.7578558 44.5840479,16.0341397 45.9595068,14.7541333 C47.3349658,13.4741269 48.9593331,12.8341333 50.8326575,12.8341333 C52.705982,12.8341333 54.2965962,13.4058609 55.6045479,14.5493333 C56.9124997,15.6928057 57.5664658,17.2629233 57.5664658,19.2597333 L57.5664658,21.3077333 L47.6429589,21.3077333 C47.7610965,22.0586704 48.149257,22.6730643 48.8074521,23.1509333 C49.4656471,23.6288024 50.208215,23.8677333 51.0351781,23.8677333 C52.368445,23.8677333 53.4654204,23.4154712 54.326137,22.5109333 L56.4526027,24.8405333 Z M53.7185753,18.5685333 C53.6341914,17.7493292 53.3304136,17.1178689 52.8072329,16.6741333 C52.2840522,16.2303978 51.6469627,16.0085333 50.8959452,16.0085333 C50.1449278,16.0085333 49.4572086,16.238931 48.8327671,16.6997333 C48.2083256,17.1605356 47.84548,17.7834627 47.7442192,18.5685333 L53.7185753,18.5685333 Z" id="Care-Copy-6" fill="#FFFFFF"></path>
                <path d="M72.8652055,21.9306667 L63.1948493,21.9306667 L61.220274,26.4618667 L59.0684932,26.4618667 L67.0174247,8.54186667 L69.1185753,8.54186667 L77.0421918,26.4618667 L74.8397808,26.4618667 L72.8652055,21.9306667 Z M72.0044932,19.9594667 L68.0047123,10.8714667 L64.0555616,19.9594667 L72.0044932,19.9594667 Z M91.8008767,7.46666667 L91.8008767,26.4618667 L89.8263014,26.4618667 L89.8263014,23.5690667 C88.8390137,25.4634667 87.0163288,26.5642667 84.6367123,26.5642667 C80.8394521,26.5642667 78.2066849,23.7226667 78.2066849,19.7034667 C78.2066849,15.6586667 80.8394521,12.8682667 84.6113973,12.8682667 C86.9910137,12.8682667 88.8390137,13.9690667 89.8263014,15.8890667 L89.8263014,7.46666667 L91.8008767,7.46666667 Z M85.0164384,24.7722667 C87.826411,24.7722667 89.8263014,22.6730667 89.8263014,19.7546667 C89.8263014,16.8106667 87.826411,14.6858667 85.0164384,14.6858667 C82.1811507,14.6858667 80.1812603,16.8106667 80.1812603,19.7546667 C80.1812603,22.6730667 82.1811507,24.7722667 85.0164384,24.7722667 Z M102.15474,12.9194667 C106.10389,12.9194667 108.913863,15.6842667 108.913863,19.7034667 C108.913863,23.7482667 106.10389,26.5386667 102.15474,26.5386667 C98.205589,26.5386667 95.3956164,23.7482667 95.3956164,19.7034667 C95.3956164,15.6842667 98.205589,12.9194667 102.15474,12.9194667 Z M102.15474,14.7370667 C99.3700822,14.7370667 97.3701918,16.7850667 97.3701918,19.7290667 C97.3701918,22.6986667 99.3700822,24.7466667 102.15474,24.7466667 C104.939397,24.7466667 106.939288,22.6986667 106.939288,19.7290667 C106.939288,16.7850667 104.939397,14.7370667 102.15474,14.7370667 Z M119.622137,12.8938667 C123.394082,12.8938667 126.026849,15.7098667 126.026849,19.7546667 C126.026849,23.7482667 123.444712,26.5386667 119.672767,26.5386667 C117.293151,26.5386667 115.470466,25.4378667 114.483178,23.5690667 L114.483178,31.4282667 L112.508603,31.4282667 L112.508603,12.9706667 L114.483178,12.9706667 L114.483178,15.8890667 C115.470466,13.9946667 117.293151,12.8938667 119.622137,12.8938667 Z M119.267726,24.7210667 C122.052384,24.7210667 124.026959,22.6218667 124.026959,19.7034667 C124.026959,16.8106667 122.052384,14.6858667 119.267726,14.6858667 C116.457753,14.6858667 114.483178,16.7850667 114.483178,19.7034667 C114.483178,22.6474667 116.457753,24.7210667 119.267726,24.7210667 Z M135.823781,23.9274667 L136.380712,25.5402667 C135.444055,26.1802667 134.431452,26.5386667 133.368219,26.5642667 C131.418959,26.5642667 129.976,25.3866667 129.976,22.7242667 L129.976,15.0186667 L128.052055,15.0186667 L128.052055,13.4058667 L129.976,13.4058667 L129.976,9.84746667 L131.92526,9.84746667 L131.92526,13.4058667 L136.152877,13.3802667 L136.152877,15.0186667 L131.92526,15.0186667 L131.92526,22.3658667 C131.92526,24.0042667 132.558137,24.6186667 133.697315,24.6186667 C134.380822,24.6186667 135.089644,24.3882667 135.823781,23.9274667 Z" id="Adopt-Copy-6" fill="#FFFFFF"></path>
                <g id="Group-Copy-6" transform="translate(136.068493, 0.000000)">
                    <path d="M13.2297397,0 C15.8301584,0 17.9315068,2.9296875 17.9315068,5.4296875 C17.9315068,10.359375 8.96575342,16 8.96575342,16 C8.96575342,16 0,10.515625 0,5.4296875 C0,2.9296875 2.10134846,0 4.70176718,0 C6.58422517,0 8.20401461,1.0390625 8.96575342,2.5703125 C9.72749224,1.0390625 11.3472817,0 13.2297397,0 Z" id="heart-copy" fill="#FFFFFF"></path>
                    <path d="M1.11241585,8.78408183 C0.975915791,8.56345149 0.849279644,8.34105836 0.734070239,8.11741516 L4.51311161,8.11741516 L6.37173253,4.55379585 L9.02466062,10.842276 L11.736396,5.96696044 L13.0336069,8.11791167 L17.1619033,8.12887244 C17.0432328,8.35181224 16.9130728,8.57388108 16.7730325,8.79450897 L12.6587162,8.78358532 L11.7596094,7.29274469 L8.94259441,12.3573381 L6.30823407,6.11287082 L4.91505252,8.78408183 L1.11241585,8.78408183 Z" id="Combined-Shape" fill="#358370" fill-rule="nonzero"></path>
                </g>
            </g>
        </g>
    </g>
</svg>