<?xml version="1.0" encoding="UTF-8"?>
<svg width="228px" height="47px" viewBox="0 0 228 47" version="1.1" xmlns="http://www.w3.org/2000/svg" xmlns:xlink="http://www.w3.org/1999/xlink">
    <!-- Generator: Sketch 50.2 (55047) - http://www.bohemiancoding.com/sketch -->
    <title>logo--color</title>
    <desc>Created with Sketch.</desc>
    <defs></defs>
    <g id="Page-1" stroke="none" stroke-width="1" fill="none" fill-rule="evenodd">
        <g id="login__org" transform="translate(-407.000000, -128.000000)">
            <g id="logo--color" transform="translate(407.000000, 128.000000)">
                <g id="Group">
                    <path d="M13.7999896,34.9693503 C16.7146025,34.9693503 19.096946,33.8683501 20.9470916,31.6663166 L24.7487416,35.4049152 C21.7327509,38.6474701 18.1782437,40.2687232 14.0851133,40.2687232 C9.99198301,40.2687232 6.62122036,39.034635 3.97272427,36.5664216 C1.32422818,34.0982082 0,30.9827405 0,27.219925 C0,23.4571095 1.34957226,20.3174439 4.04875727,17.8008342 C6.74794228,15.2842245 10.0490087,14.0259385 13.9520556,14.0259385 C18.3113027,14.0259385 21.9608503,15.6108949 24.9008076,18.7808552 L21.2132071,22.7735334 C19.3377171,20.5473017 17.0060617,19.4342026 14.2181711,19.4342026 C11.9878586,19.4342026 10.0807166,20.1298895 8.4966878,21.5212843 C6.91265904,22.9126791 6.12065653,24.7880092 6.12065653,27.1473308 C6.12065653,29.5066525 6.8683069,31.4001309 8.36363005,32.827823 C9.8589532,34.255515 11.6710549,34.9693503 13.7999896,34.9693503 Z M46.2280643,39.9783466 L40.8677377,39.9783466 L40.8677377,37.6190368 C39.397759,39.3855032 37.5793213,40.2687232 35.41237,40.2687232 C33.2454186,40.2687232 31.4269809,39.6698274 29.9570022,38.472018 C28.4870235,37.2742086 27.7520452,35.6771533 27.7520452,33.6808042 C27.7520452,31.6844551 28.5123676,30.1902405 30.0330352,29.1981155 C31.5537028,28.2059905 33.6319173,27.7099355 36.2677412,27.7099355 L40.5255892,27.7099355 L40.5255892,27.6010443 C40.5255892,25.5200016 39.3724336,24.4794959 37.0660877,24.4794959 C36.0776538,24.4794959 35.0322105,24.6670289 33.9297264,25.0421005 C32.8272424,25.4171722 31.8958475,25.88298 31.1355137,26.4395379 L28.5884082,22.9187217 C31.2749209,21.0554626 34.3415546,20.123847 37.7884012,20.123847 C40.2721583,20.123847 42.2996847,20.7166932 43.8710413,21.9024036 C45.4423978,23.088114 46.2280643,24.963444 46.2280643,27.5284501 L46.2280643,39.9783466 Z M40.4875727,32.5374464 L40.4875727,31.5937224 L36.9140217,31.5937224 C34.6330203,31.5937224 33.4925367,32.271261 33.4925367,33.6263586 C33.4925367,34.3281055 33.7649856,34.8665068 34.3098914,35.2415784 C34.8547973,35.61665 35.6341278,35.804183 36.6479062,35.804183 C37.6616846,35.804183 38.5550634,35.5077599 39.3280695,34.9149047 C40.1010755,34.3220495 40.4875727,33.5295714 40.4875727,32.5374464 Z M62.1949944,25.2417344 C60.4969155,25.2417344 59.2297115,25.8164324 58.3933443,26.9658455 C57.5569771,28.1152586 57.1387998,29.633671 57.1387998,31.5211283 L57.1387998,39.9783466 L51.4363248,39.9783466 L51.4363248,20.4505206 L57.1387998,20.4505206 L57.1387998,23.0276129 C57.8737892,22.2290733 58.7925121,21.5515347 59.8949961,20.9949767 C60.9974801,20.4384188 62.1189557,20.1480451 63.2594564,20.123847 L63.2974729,25.2417344 L62.1949944,25.2417344 Z M84.7767955,37.1471748 C82.4704496,39.2282175 79.7649691,40.2687232 76.6602727,40.2687232 C73.5555763,40.2687232 70.9894882,39.3552559 68.9619314,37.5282941 C66.9343746,35.7013322 65.9206114,33.2513042 65.9206114,30.1781365 C65.9206114,27.1049689 66.9533826,24.6609903 69.0189561,22.8461275 C71.0845297,21.0312647 73.5238974,20.123847 76.3371324,20.123847 C79.1503675,20.123847 81.5390471,20.9344735 83.5032427,22.5557509 C85.4674384,24.1770284 86.4495215,26.4032267 86.4495215,29.2344126 L86.4495215,32.1381785 L71.5470534,32.1381785 C71.7244646,33.202898 72.3073785,34.0740191 73.2958124,34.7515679 C74.2842464,35.4291167 75.3993859,35.767886 76.6412644,35.767886 C78.6434768,35.767886 80.290842,35.1266441 81.5834095,33.844141 L84.7767955,37.1471748 Z M80.6710135,28.2543916 C80.5442912,27.0928794 80.0880977,26.1975605 79.3024195,25.5684081 C78.5167412,24.9392557 77.5600022,24.6246842 76.4321737,24.6246842 C75.3043452,24.6246842 74.2715739,24.9513546 73.3338289,25.6047052 C72.3960839,26.2580558 71.8511862,27.1412758 71.6991194,28.2543916 L80.6710135,28.2543916 Z" id="Care-Copy-4" fill="#49B48B"></path>
                    <path d="M109.127156,33.4175064 L94.6048528,33.4175064 L91.6395658,39.8420885 L88.4081633,39.8420885 L100.345344,14.4341365 L103.500714,14.4341365 L115.399878,39.8420885 L112.092443,39.8420885 L109.127156,33.4175064 Z M107.834595,30.6226317 L101.827988,17.7371703 L95.8974138,30.6226317 L107.834595,30.6226317 Z M137.563498,12.9096594 L137.563498,39.8420885 L134.598211,39.8420885 L134.598211,35.7405191 C133.115568,38.4265026 130.37838,39.9872768 126.804828,39.9872768 C121.102353,39.9872768 117.148637,35.9583016 117.148637,30.2596609 C117.148637,24.5247232 121.102353,20.5683421 126.766812,20.5683421 C130.340363,20.5683421 133.115568,22.1291163 134.598211,24.8513968 L134.598211,12.9096594 L137.563498,12.9096594 Z M127.375076,37.4464816 C131.594908,37.4464816 134.598211,34.4701215 134.598211,30.3322551 C134.598211,26.1580915 131.594908,23.1454344 127.375076,23.1454344 C123.117228,23.1454344 120.113924,26.1580915 120.113924,30.3322551 C120.113924,34.4701215 123.117228,37.4464816 127.375076,37.4464816 Z M153.112247,20.6409362 C159.042821,20.6409362 163.262652,24.5610203 163.262652,30.2596609 C163.262652,35.9945986 159.042821,39.9509797 153.112247,39.9509797 C147.181673,39.9509797 142.961841,35.9945986 142.961841,30.2596609 C142.961841,24.5610203 147.181673,20.6409362 153.112247,20.6409362 Z M153.112247,23.2180285 C148.930432,23.2180285 145.927128,26.1217944 145.927128,30.295958 C145.927128,34.5064186 148.930432,37.4101845 153.112247,37.4101845 C157.294062,37.4101845 160.297365,34.5064186 160.297365,30.295958 C160.297365,26.1217944 157.294062,23.2180285 153.112247,23.2180285 Z M179.343632,20.6046392 C185.00809,20.6046392 188.961806,24.5973173 188.961806,30.3322551 C188.961806,35.9945986 185.084123,39.9509797 179.419665,39.9509797 C175.846114,39.9509797 173.108926,38.3902056 171.626282,35.7405191 L171.626282,46.8837209 L168.660995,46.8837209 L168.660995,20.7135304 L171.626282,20.7135304 L171.626282,24.8513968 C173.108926,22.1654134 175.846114,20.6046392 179.343632,20.6046392 Z M178.811401,37.3738875 C182.993216,37.3738875 185.958503,34.3975274 185.958503,30.2596609 C185.958503,26.1580915 182.993216,23.1454344 178.811401,23.1454344 C174.591569,23.1454344 171.626282,26.1217944 171.626282,30.2596609 C171.626282,34.4338245 174.591569,37.3738875 178.811401,37.3738875 Z M203.674192,36.2486782 L204.510555,38.5353938 C203.103944,39.4428207 201.583284,39.9509797 199.986591,39.9872768 C197.059321,39.9872768 194.89238,38.3176114 194.89238,34.5427157 L194.89238,23.6172963 L192.003126,23.6172963 L192.003126,21.3305806 L194.89238,21.3305806 L194.89238,16.2852873 L197.819651,16.2852873 L197.819651,21.3305806 L204.168406,21.2942836 L204.168406,23.6172963 L197.819651,23.6172963 L197.819651,34.0345566 C197.819651,36.3575694 198.770063,37.2286992 200.480806,37.2286992 C201.507251,37.2286992 202.571713,36.9020255 203.674192,36.2486782 Z" id="Adopt-Copy-4" fill="#49B48B"></path>
                    <g id="Group-Copy-4" transform="translate(204.734694, 0.630590)">
                        <path d="M17.1649793,0 C20.5389031,0 23.2653061,3.67914244 23.2653061,6.81867733 C23.2653061,13.0094477 11.6326531,20.0930233 11.6326531,20.0930233 C11.6326531,20.0930233 0,13.2056686 0,6.81867733 C0,3.67914244 2.72640306,0 6.10032685,0 C8.54272959,0 10.644332,1.30486919 11.6326531,3.2278343 C12.6209742,1.30486919 14.7225765,0 17.1649793,0 Z" id="heart-copy" fill="#CA2C4E"></path>
                        <path d="M1.44330844,11.0311725 C1.26620589,10.7541019 1.10190131,10.4748175 0.952422402,10.1939632 L5.85555492,10.1939632 L8.26703016,5.71872037 L11.7090824,13.6158815 L15.2274345,7.49339218 L16.910506,10.1945867 L22.2667809,10.2083514 C22.1128114,10.4883223 21.9439348,10.7671995 21.7622389,11.0442671 L16.4241025,11.030549 L15.2575529,9.15833054 L11.6026053,15.5185177 L8.18464382,7.67662847 L6.37705478,11.0311725 L1.44330844,11.0311725 Z" id="Combined-Shape" fill="#FFFFFF" fill-rule="nonzero"></path>
                    </g>
                </g>
            </g>
        </g>
    </g>
</svg>