<?xml version="1.0" encoding="UTF-8"?>
<svg width="64px" height="64px" viewBox="0 0 64 64" version="1.1" xmlns="http://www.w3.org/2000/svg" xmlns:xlink="http://www.w3.org/1999/xlink">
    <!-- Generator: Sketch 50.2 (55047) - http://www.bohemiancoding.com/sketch -->
    <title>search--white</title>
    <desc>Created with Sketch.</desc>
    <defs></defs>
    <g id="Symbols" stroke="none" stroke-width="1" fill="none" fill-rule="evenodd">
        <g id="search--white">
            <rect id="Rectangle-10-Copy-5" fill="#358370" x="0" y="0" width="64" height="64"></rect>
            <path d="M43.4960938,40.9765625 C44.1640625,41.6679688 44.1640625,42.7929688 43.4960938,43.4960938 C43.1445312,43.8359375 42.6875,44 42.2304688,44 C41.7734375,44 41.3164062,43.8359375 40.9765625,43.4960938 L35.4570312,37.9765625 C33.875,39.0664062 31.9414062,39.7109375 29.8554688,39.7109375 C24.4179688,39.7109375 20,35.2929688 20,29.8554688 C20,24.4179688 24.4179688,20 29.8554688,20 C35.2929688,20 39.7109375,24.4179688 39.7109375,29.8554688 C39.7109375,31.9414062 39.0664062,33.875 37.9765625,35.4570312 L43.4960938,40.9765625 Z M22.5664062,29.8554688 C22.5664062,33.875 25.8359375,37.1445312 29.8554688,37.1445312 C33.875,37.1445312 37.1445312,33.875 37.1445312,29.8554688 C37.1445312,25.8359375 33.875,22.5664062 29.8554688,22.5664062 C25.8359375,22.5664062 22.5664062,25.8359375 22.5664062,29.8554688 Z" id="Search" fill="#FFFFFF"></path>
        </g>
    </g>
</svg>