<?xml version="1.0" encoding="UTF-8"?>
<svg width="48px" height="48px" viewBox="0 0 48 48" version="1.1" xmlns="http://www.w3.org/2000/svg" xmlns:xlink="http://www.w3.org/1999/xlink">
    <!-- Generator: Sketch 50.2 (55047) - http://www.bohemiancoding.com/sketch -->
    <title>search</title>
    <desc>Created with Sketch.</desc>
    <defs></defs>
    <g id="Page-1" stroke="none" stroke-width="1" fill="none" fill-rule="evenodd">
        <g id="nav" transform="translate(-142.000000, -2327.000000)">
            <g id="search" transform="translate(142.000000, 2327.000000)">
                <path d="M0,0 L48,0 L48,48 L0,48 L0,0 Z" id="Rectangle-Copy-3" fill="#FFFFFF"></path>
                <path d="M35.4960938,32.9765625 C36.1640625,33.6679688 36.1640625,34.7929688 35.4960938,35.4960938 C35.1445312,35.8359375 34.6875,36 34.2304688,36 C33.7734375,36 33.3164062,35.8359375 32.9765625,35.4960938 L27.4570312,29.9765625 C25.875,31.0664062 23.9414062,31.7109375 21.8554688,31.7109375 C16.4179688,31.7109375 12,27.2929688 12,21.8554688 C12,16.4179688 16.4179688,12 21.8554688,12 C27.2929688,12 31.7109375,16.4179688 31.7109375,21.8554688 C31.7109375,23.9414062 31.0664062,25.875 29.9765625,27.4570312 L35.4960938,32.9765625 Z M14.5664062,21.8554688 C14.5664062,25.875 17.8359375,29.1445312 21.8554688,29.1445312 C25.875,29.1445312 29.1445312,25.875 29.1445312,21.8554688 C29.1445312,17.8359375 25.875,14.5664062 21.8554688,14.5664062 C17.8359375,14.5664062 14.5664062,17.8359375 14.5664062,21.8554688 Z" fill="#49B48B"></path>
            </g>
        </g>
    </g>
</svg>